Sparks-Dotline-Medium.ufo
<glyph name="comma" format="1">
	<unicode hex="002C"/>
	<advance width="217"/>
	<outline>
		<contour>
			<point x="111" y="0" type="line"/>
			<point x="111" y="-42"/>
			<point x="95" y="-62"/>
			<point x="55" y="-69" type="curve"/>
			<point x="55" y="-113" type="line"/>
			<point x="122" y="-104"/>
			<point x="162" y="-62"/>
			<point x="162" y="14" type="curve" smooth="yes"/>
			<point x="162" y="114" type="line"/>
			<point x="55" y="114" type="line"/>
			<point x="55" y="0" type="line"/>
		</contour>
	</outline>
</glyph>
<glyph name="three" format="1">
	<unicode hex="0033"/>
	<advance width="450"/>
	<outline>
		<contour>
			<point x="192" y="284" type="line"/>
			<point x="192" y="216" type="line"/>
			<point x="237" y="216" type="line" smooth="yes"/>
			<point x="296" y="216"/>
			<point x="334" y="190"/>
			<point x="334" y="143" type="curve" smooth="yes"/>
			<point x="334" y="85"/>
			<point x="288" y="62"/>
			<point x="230" y="62" type="curve" smooth="yes"/>
			<point x="158" y="62"/>
			<point x="125" y="100"/>
			<point x="117" y="156" type="curve"/>
			<point x="39" y="156" type="line"/>
			<point x="43" y="54"/>
			<point x="124" y="-10"/>
			<point x="228" y="-10" type="curve" smooth="yes"/>
			<point x="343" y="-10"/>
			<point x="416" y="47"/>
			<point x="416" y="143" type="curve" smooth="yes"/>
			<point x="416" y="196"/>
			<point x="376" y="243"/>
			<point x="327" y="257" type="curve"/>
			<point x="327" y="259" type="line"/>
			<point x="369" y="278"/>
			<point x="400" y="320"/>
			<point x="400" y="369" type="curve"/>
			<point x="400" y="462"/>
			<point x="333" y="510"/>
			<point x="237" y="510" type="curve" smooth="yes"/>
			<point x="137" y="510"/>
			<point x="65" y="450"/>
			<point x="58" y="349" type="curve"/>
			<point x="137" y="349" type="line"/>
			<point x="144" y="407"/>
			<point x="177" y="439"/>
			<point x="234" y="439" type="curve" smooth="yes"/>
			<point x="283" y="439"/>
			<point x="318" y="414"/>
			<point x="318" y="365" type="curve"/>
			<point x="318" y="312"/>
			<point x="280" y="284"/>
			<point x="227" y="284" type="curve" smooth="yes"/>
		</contour>
	</outline>
</glyph>
<glyph name="less" format="1">
	<unicode hex="003C"/>
	<advance width="450"/>
	<outline>
		<contour>
			<point x="57" y="206" type="line"/>
			<point x="397" y="35" type="line"/>
			<point x="397" y="126" type="line"/>
			<point x="128" y="250" type="line"/>
			<point x="397" y="374" type="line"/>
			<point x="397" y="465" type="line"/>
			<point x="57" y="294" type="line"/>
		</contour>
	</outline>
</glyph>
<glyph name="f" format="1">
	<unicode hex="0066"/>
	<advance width="374"/>
	<outline>
		<contour>
			<point x="52" y="0" type="line"/>
			<point x="134" y="0" type="line"/>
			<point x="134" y="210" type="line"/>
			<point x="320" y="210" type="line"/>
			<point x="320" y="282" type="line"/>
			<point x="134" y="282" type="line"/>
			<point x="134" y="428" type="line"/>
			<point x="359" y="428" type="line"/>
			<point x="359" y="500" type="line"/>
			<point x="52" y="500" type="line"/>
		</contour>
	</outline>
</glyph>
<glyph name="k" format="1">
	<unicode hex="006B"/>
	<advance width="456"/>
	<outline>
		<contour>
			<point x="56" y="0" type="line"/>
			<point x="139" y="0" type="line"/>
			<point x="139" y="140" type="line"/>
			<point x="214" y="229" type="line"/>
			<point x="361" y="0" type="line"/>
			<point x="460" y="0" type="line"/>
			<point x="268" y="292" type="line"/>
			<point x="446" y="500" type="line"/>
			<point x="349" y="500" type="line"/>
			<point x="139" y="251" type="line"/>
			<point x="139" y="500" type="line"/>
			<point x="56" y="500" type="line"/>
		</contour>
	</outline>
</glyph>
<glyph name="sterling" format="1">
	<unicode hex="00A3"/>
	<advance width="440"/>
	<outline>
		<contour>
			<point x="38" y="215" type="line"/>
			<point x="311" y="215" type="line"/>
			<point x="311" y="275" type="line"/>
			<point x="38" y="275" type="line"/>
		</contour>
		<contour>
			<point x="48" y="0" type="line"/>
			<point x="414" y="0" type="line"/>
			<point x="414" y="72" type="line"/>
			<point x="166" y="72" type="line"/>
			<point x="188" y="89"/>
			<point x="203" y="119"/>
			<point x="203" y="151" type="curve" smooth="yes"/>
			<point x="203" y="223"/>
			<point x="159" y="256"/>
			<point x="159" y="352" type="curve" smooth="yes"/>
			<point x="159" y="404"/>
			<point x="186" y="433"/>
			<point x="235" y="433" type="curve" smooth="yes"/>
			<point x="289" y="433"/>
			<point x="314" y="404"/>
			<point x="320" y="347" type="curve"/>
			<point x="404" y="347" type="line"/>
			<point x="400" y="457"/>
			<point x="339" y="509"/>
			<point x="236" y="509" type="curve" smooth="yes"/>
			<point x="141" y="509"/>
			<point x="76" y="455"/>
			<point x="76" y="354" type="curve" smooth="yes"/>
			<point x="76" y="243"/>
			<point x="122" y="233"/>
			<point x="122" y="146" type="curve" smooth="yes"/>
			<point x="122" y="98"/>
			<point x="96" y="75"/>
			<point x="48" y="72" type="curve"/>
		</contour>
	</outline>
</glyph>
<glyph name="yen" format="1">
	<unicode hex="00A5"/>
	<advance width="440"/>
	<outline>
		<contour>
			<point x="179" y="0" type="line"/>
			<point x="261" y="0" type="line"/>
			<point x="261" y="217" type="line"/>
			<point x="439" y="500" type="line"/>
			<point x="351" y="500" type="line"/>
			<point x="220" y="282" type="line"/>
			<point x="89" y="500" type="line"/>
			<point x="1" y="500" type="line"/>
			<point x="179" y="217" type="line"/>
		</contour>
		<contour>
			<point x="35" y="103" type="line"/>
			<point x="405" y="103" type="line"/>
			<point x="405" y="163" type="line"/>
			<point x="35" y="163" type="line"/>
		</contour>
		<contour>
			<point x="35" y="215" type="line"/>
			<point x="405" y="215" type="line"/>
			<point x="405" y="275" type="line"/>
			<point x="260" y="275" type="line"/>
			<point x="220" y="233" type="line"/>
			<point x="180" y="275" type="line"/>
			<point x="35" y="275" type="line"/>
		</contour>
	</outline>
</glyph>
<glyph name="threesuperior" format="1">
	<unicode hex="00B3"/>
	<advance width="264"/>
	<outline>
		<contour>
			<point x="116" y="386" type="line"/>
			<point x="116" y="334" type="line"/>
			<point x="127" y="334" type="line" smooth="yes"/>
			<point x="162" y="334"/>
			<point x="177" y="323"/>
			<point x="177" y="302" type="curve" smooth="yes"/>
			<point x="177" y="281"/>
			<point x="163" y="268"/>
			<point x="131" y="268" type="curve" smooth="yes"/>
			<point x="102" y="268"/>
			<point x="87" y="281"/>
			<point x="82" y="307" type="curve"/>
			<point x="20" y="307" type="line"/>
			<point x="23" y="250"/>
			<point x="72" y="217"/>
			<point x="130" y="217" type="curve" smooth="yes"/>
			<point x="194" y="217"/>
			<point x="241" y="248"/>
			<point x="241" y="301" type="curve" smooth="yes"/>
			<point x="241" y="332"/>
			<point x="221" y="354"/>
			<point x="191" y="363" type="curve"/>
			<point x="191" y="366" type="line"/>
			<point x="216" y="379"/>
			<point x="232" y="400"/>
			<point x="232" y="429" type="curve"/>
			<point x="232" y="476"/>
			<point x="186" y="506"/>
			<point x="134" y="506" type="curve" smooth="yes"/>
			<point x="78" y="506"/>
			<point x="31" y="474"/>
			<point x="27" y="418" type="curve"/>
			<point x="89" y="418" type="line"/>
			<point x="93" y="442"/>
			<point x="109" y="455"/>
			<point x="132" y="455" type="curve" smooth="yes"/>
			<point x="153" y="455"/>
			<point x="168" y="443"/>
			<point x="168" y="422" type="curve"/>
			<point x="168" y="397"/>
			<point x="151" y="386"/>
			<point x="123" y="386" type="curve" smooth="yes"/>
		</contour>
	</outline>
</glyph>
<glyph name="acute" format="1">
	<unicode hex="00B4"/>
	<advance width="271"/>
	<outline>
		<contour>
			<point x="117" y="560" type="line"/>
			<point x="221" y="670" type="line"/>
			<point x="117" y="670" type="line"/>
			<point x="50" y="560" type="line"/>
		</contour>
	</outline>
</glyph>
<glyph name="ordmasculine" format="1">
	<unicode hex="00BA"/>
	<advance width="308"/>
	<outline>
		<contour>
			<point x="155" y="276" type="curve" smooth="yes"/>
			<point x="115" y="276"/>
			<point x="90" y="308"/>
			<point x="90" y="360" type="curve"/>
			<point x="90" y="413"/>
			<point x="111" y="446"/>
			<point x="153" y="446" type="curve" smooth="yes"/>
			<point x="193" y="446"/>
			<point x="218" y="415"/>
			<point x="218" y="363" type="curve" smooth="yes"/>
			<point x="218" y="310"/>
			<point x="196" y="276"/>
		</contour>
		<contour>
			<point x="153" y="217" type="curve" smooth="yes"/>
			<point x="226" y="217"/>
			<point x="284" y="266"/>
			<point x="284" y="360" type="curve" smooth="yes"/>
			<point x="284" y="455"/>
			<point x="228" y="506"/>
			<point x="155" y="506" type="curve" smooth="yes"/>
			<point x="82" y="506"/>
			<point x="24" y="457"/>
			<point x="24" y="363" type="curve" smooth="yes"/>
			<point x="24" y="268"/>
			<point x="79" y="217"/>
		</contour>
	</outline>
</glyph>
<glyph name="arrowleft" format="1">
	<unicode hex="2190"/>
	<advance width="708"/>
	<outline>
		<contour>
			<point x="265" y="-5" type="line"/>
			<point x="310" y="40" type="line"/>
			<point x="128" y="217" type="line"/>
			<point x="693" y="217" type="line"/>
			<point x="693" y="283" type="line"/>
			<point x="128" y="283" type="line"/>
			<point x="310" y="460" type="line"/>
			<point x="265" y="505" type="line"/>
			<point x="10" y="250" type="line"/>
		</contour>
	</outline>
</glyph>
<glyph name="chart.dot" format="1">
	<advance width="170"/>
	<outline>
		<contour>
			<point x="85" y="-45" type="curve" smooth="yes"/>
			<point x="110" y="-45"/>
			<point x="130" y="-25"/>
			<point x="130" y="0" type="curve" smooth="yes"/>
			<point x="130" y="25"/>
			<point x="110" y="45"/>
			<point x="85" y="45" type="curve" smooth="yes"/>
			<point x="60" y="45"/>
			<point x="40" y="25"/>
			<point x="40" y="0" type="curve" smooth="yes"/>
			<point x="40" y="-25"/>
			<point x="60" y="-45"/>
		</contour>
	</outline>
</glyph>
<glyph name="foursuperscript" format="1">
	<advance width="283"/>
	<outline>
		<contour>
			<point x="20" y="280" type="line"/>
			<point x="154" y="280" type="line"/>
			<point x="154" y="223" type="line"/>
			<point x="218" y="223" type="line"/>
			<point x="218" y="280" type="line"/>
			<point x="261" y="280" type="line"/>
			<point x="261" y="334" type="line"/>
			<point x="218" y="334" type="line"/>
			<point x="218" y="500" type="line"/>
			<point x="143" y="500" type="line"/>
			<point x="20" y="329" type="line"/>
		</contour>
		<contour>
			<point x="80" y="334" type="line"/>
			<point x="157" y="443" type="line"/>
			<point x="158" y="443" type="line"/>
			<point x="154" y="334" type="line"/>
		</contour>
	</outline>
</glyph>
<glyph name="line.up.025" format="1">
  <advance width="350"/>
  <outline>
    <contour>
      <point x="85" y="-26" type="line"/>
      <point x="435" y="149" type="line"/>
      <point x="435" y="201" type="line"/>
      <point x="85" y="26" type="line"/>
    </contour>
    <component base="chart.dot"/>
  </outline>
</glyph>
<glyph name="line.up.041" format="1">
  <advance width="350"/>
  <outline>
    <contour>
      <point x="85" y="-29" type="line"/>
      <point x="435" y="258" type="line"/>
      <point x="435" y="316" type="line"/>
      <point x="85" y="29" type="line"/>
    </contour>
    <component base="chart.dot"/>
  </outline>
</glyph>
<glyph name="line.up.060" format="1">
  <advance width="350"/>
  <outline>
    <contour>
      <point x="85" y="-34" type="line"/>
      <point x="435" y="386" type="line"/>
      <point x="435" y="454" type="line"/>
      <point x="85" y="34" type="line"/>
    </contour>
    <component base="chart.dot"/>
  </outline>
</glyph>
<glyph name="line.up.083" format="1">
  <advance width="350"/>
  <outline>
    <contour>
      <point x="85" y="-43" type="line"/>
      <point x="435" y="538" type="line"/>
      <point x="435" y="624" type="line"/>
      <point x="85" y="43" type="line"/>
    </contour>
    <component base="chart.dot"/>
  </outline>
</glyph>
<glyph name="line.up.084" format="1">
  <advance width="350"/>
  <outline>
    <contour>
      <point x="85" y="-44" type="line"/>
      <point x="435" y="544" type="line"/>
      <point x="435" y="632" type="line"/>
      <point x="85" y="44" type="line"/>
    </contour>
    <component base="chart.dot"/>
  </outline>
</glyph>
<glyph name="line.up.089" format="1">
  <advance width="350"/>
  <outline>
    <contour>
      <point x="89" y="-39" type="line"/>
      <point x="436" y="579" type="line"/>
      <point x="434" y="667" type="line"/>
      <point x="81" y="39" type="line"/>
    </contour>
    <component base="chart.dot"/>
  </outline>
</glyph>
<glyph name="line.up.090" format="1">
  <advance width="350"/>
  <outline>
    <contour>
      <point x="90" y="-38" type="line"/>
      <point x="436" y="585" type="line"/>
      <point x="434" y="675" type="line"/>
      <point x="80" y="38" type="line"/>
    </contour>
    <component base="chart.dot"/>
  </outline>
</glyph>
<glyph name="line.up.093" format="1">
  <advance width="350"/>
  <outline>
    <contour>
      <point x="92" y="-35" type="line"/>
      <point x="437" y="607" type="line"/>
      <point x="433" y="695" type="line"/>
      <point x="78" y="35" type="line"/>
    </contour>
    <component base="chart.dot"/>
  </outline>
</glyph>
<glyph name="line.up.095" format="1">
  <advance width="350"/>
  <outline>
    <contour>
      <point x="94" y="-32" type="line"/>
      <point x="441" y="627" type="line"/>
      <point x="429" y="703" type="line"/>
      <point x="76" y="32" type="line"/>
    </contour>
    <component base="chart.dot"/>
  </outline>
</glyph>
<glyph name="line.up.096" format="1">
  <advance width="350"/>
  <outline>
    <contour>
      <point x="96" y="-29" type="line"/>
      <point x="439" y="630" type="line"/>
      <point x="431" y="714" type="line"/>
      <point x="74" y="29" type="line"/>
    </contour>
    <component base="chart.dot"/>
  </outline>
</glyph>
<glyph name="line.up.097" format="1">
  <advance width="350"/>
  <outline>
    <contour>
      <point x="99" y="-23" type="line"/>
      <point x="439" y="637" type="line"/>
      <point x="431" y="721" type="line"/>
      <point x="71" y="23" type="line"/>
    </contour>
    <component base="chart.dot"/>
  </outline>
</glyph>
<glyph name="line.up.098" format="1">
  <advance width="347"/>
  <outline>
    <contour>
      <point x="89" y="-43" type="line"/>
      <point x="439" y="643" type="line"/>
      <point x="431" y="729" type="line"/>
      <point x="81" y="43" type="line"/>
    </contour>
    <component base="chart.dot"/>
  </outline>
</glyph>
